<?xml version="1.0" encoding="UTF-8" standalone="no"?>
<!-- Created with Inkscape (http://www.inkscape.org/) -->

<svg
   version="1.1"
   id="svg1"
   width="539.93335"
   height="238.70667"
   viewBox="0 0 539.93335 238.70667"
   xmlns="http://www.w3.org/2000/svg"
   xmlns:svg="http://www.w3.org/2000/svg">
  <defs
     id="defs1" />
  <g
     id="g1">
    <g
       id="group-R5">
      <path
         id="path3"
         d="m 1934.62,489.02 c 0.82,-27.848 11.22,-87.891 106.4,-102.309 26.99,-4.082 20.44,-12.25 20.44,-16.371 0,-7.36 -1.64,-12.27 -22.91,-12.27 H 1621.2 c -34.3,-0.91 -40.91,-4.25 -40.91,12.27 0,8.551 10.64,13.101 25.36,16.371 14.73,3.269 85.93,17.187 89.2,102.309 3.28,85.082 2.45,758.58 0.81,779.03 -1.63,20.46 10.64,119.84 -87.55,131.75 -27,3.27 -27,6.54 -27,17.19 0,13.92 10.34,15.83 39.27,15.27 v 0 h 408.35 c 20.46,0.36 30.69,0 30.69,-16.91 0,-9.85 -9.42,-13.09 -29.87,-15.55 -15.46,-1.86 -93.29,3.83 -93.29,-131.75 l -1.64,-779.03"
         style="fill:#ee2423;fill-opacity:1;fill-rule:evenodd;stroke:none"
         transform="matrix(0.13333333,0,0,-0.13333333,0,238.70667)" />
      <path
         id="path4"
         d="m 2002.91,1006.03 232.86,286.02 c 5.66,9.01 63.02,95.75 -61.38,102.3 -13.07,0.69 -27.82,-3.27 -27.82,17.18 0,15.28 12.28,15.64 26.99,15.28 117.71,-2.89 234.46,-2.89 333.88,0 23.83,0.69 24.57,-6.27 24.57,-16.1 0,-9.82 -6.86,-10.05 -24.57,-14.73 -43.36,-11.45 -113.73,-13.09 -249.57,-171.03 l -126.84,-156.84 c 0,0 121.1,-207.579 356.77,-598.731 35.98,-59.699 42.57,-72.848 86.75,-79.399 20.23,-2.992 27.02,-7.351 26.88,-18.019 -0.16,-13.891 -11.25,-16.91 -22.79,-16.352 h -445.99 c -8.99,-0.789 -21.27,-2.449 -21.27,14.731 0,9.832 6.55,11.461 28.65,15.551 22.09,4.089 117.02,2.461 68.74,83.488 -38.76,65.019 -154.5,265.562 -205.86,350.633 v 186.018"
         style="fill:#ee2423;fill-opacity:1;fill-rule:evenodd;stroke:none"
         transform="matrix(0.13333333,0,0,-0.13333333,0,238.70667)" />
      <path
         id="path5"
         d="m 1266.99,1473.35 c 0,57.65 46.73,104.39 104.38,104.39 57.65,0 104.38,-46.74 104.38,-104.39 0,-57.65 -46.73,-104.39 -104.38,-104.39 -57.65,0 -104.38,46.74 -104.38,104.39 v 0"
         style="fill:#9a1421;fill-opacity:1;fill-rule:evenodd;stroke:none"
         transform="matrix(0.13333333,0,0,-0.13333333,0,238.70667)" />
      <path
         id="path6"
         d="m 457.504,1369.17 c 57.652,0 104.383,46.74 104.383,104.39 0,40.02 -29.106,104.39 -104.383,104.39 -57.641,0 -104.387,-46.75 -104.387,-104.39 0,-57.65 46.746,-104.39 104.387,-104.39 v 0"
         style="fill:#ee2423;fill-opacity:1;fill-rule:evenodd;stroke:none"
         transform="matrix(0.13333333,0,0,-0.13333333,0,238.70667)" />
      <path
         id="path7"
         d="m 870.719,1394.96 v 55.63 c -324.055,-18.16 -512.645,-244.6 -512.645,-556.438 0,-308.23 209.516,-528.953 512.645,-551.882 l -0.016,58.179 c -149.125,30.731 -241.348,232.27 -241.348,495.903 0,324.078 110.348,473.788 241.364,498.608"
         style="fill:#ee2423;fill-opacity:1;fill-rule:evenodd;stroke:none"
         transform="matrix(0.13333333,0,0,-0.13333333,0,238.70667)" />
      <path
         id="path8"
         d="m 3024.59,489.02 c 0.82,-27.848 11.21,-87.891 106.39,-102.309 26.99,-4.082 20.45,-12.25 20.45,-16.371 0,-7.36 -1.65,-12.27 -22.91,-12.27 h -417.36 c -34.29,-0.91 -40.91,-4.25 -40.91,12.27 0,8.551 10.64,13.101 25.37,16.371 14.72,3.269 85.92,17.187 89.2,102.309 3.27,85.082 2.45,758.58 0.81,779.03 -1.64,20.46 10.63,119.84 -87.56,131.75 -27,3.27 -27,6.54 -27,17.19 0,13.92 10.34,15.83 39.27,15.27 v 0 h 408.35 c 20.47,0.36 30.7,0 30.7,-16.91 0,-9.85 -9.43,-13.09 -29.88,-15.55 -15.46,-1.86 -93.29,3.83 -93.29,-131.75 l -1.63,-779.03"
         style="fill:#ee2423;fill-opacity:1;fill-rule:evenodd;stroke:none"
         transform="matrix(0.13333333,0,0,-0.13333333,0,238.70667)" />
      <path
         id="path9"
         d="m 3092.87,1006.03 232.86,286.01 c 5.66,9.03 63.02,95.76 -61.37,102.31 -13.07,0.69 -27.82,-3.27 -27.82,17.18 0,15.28 12.27,15.64 26.99,15.28 117.7,-2.89 234.45,-2.89 333.87,0 23.83,0.69 24.57,-6.27 24.57,-16.1 0,-9.82 -6.86,-10.05 -24.57,-14.73 -43.36,-11.46 -113.73,-13.09 -249.57,-171.03 l -126.84,-156.84 c 0,0 121.1,-207.579 356.77,-598.731 35.98,-59.699 42.57,-72.848 86.75,-79.399 20.23,-2.992 27.02,-7.351 26.88,-18.019 -0.16,-13.891 -11.25,-16.91 -22.79,-16.352 h -445.98 c -8.99,-0.789 -21.27,-2.449 -21.27,14.731 0,9.832 6.54,11.461 28.64,15.551 22.1,4.089 117.02,2.461 68.74,83.488 -38.75,65.019 -154.5,265.562 -205.86,350.633 v 186.018"
         style="fill:#ee2423;fill-opacity:1;fill-rule:evenodd;stroke:none"
         transform="matrix(0.13333333,0,0,-0.13333333,0,238.70667)" />
      <path
         id="path10"
         d="m 965.688,1450.83 c 303.132,-22.93 512.642,-243.66 512.642,-551.881 0,-311.84 -188.59,-538.277 -512.642,-556.449 v 55.648 c 131.012,24.801 241.362,174.532 241.362,498.614 0,263.628 -92.22,465.158 -241.347,495.888 l -0.015,58.18"
         style="fill:#9a1421;fill-opacity:1;fill-rule:evenodd;stroke:none"
         transform="matrix(0.13333333,0,0,-0.13333333,0,238.70667)" />
    </g>
  </g>
</svg>
